<?xml version="1.0" encoding="UTF-8" standalone="no"?>
<svg width="100%" height="100%" viewBox="0 0 1024 1024" version="1.1" xmlns="http://www.w3.org/2000/svg" xmlns:xlink="http://www.w3.org/1999/xlink" xml:space="preserve" xmlns:serif="http://www.serif.com/" style="fill-rule:evenodd;clip-rule:evenodd;stroke-linejoin:round;stroke-miterlimit:2;">
    <g id="icon">
        <circle id="Oval" cx="512" cy="512" r="512" style="fill:rgb(46,45,51);"/>
        <circle id="Oval1" serif:id="Oval" cx="512" cy="512" r="512" style="fill:url(#_Linear1);"/>
        <g id="Group" transform="matrix(0.707107,-0.707107,0.707107,0.707107,174.845,540.135)">
            <g id="Rectangle-3" transform="matrix(0.707107,0.707107,-0.707107,0.707107,258.298,-505.567)">
                <path d="M185.452,550.741C179.594,544.883 179.594,535.386 185.452,529.528C196.275,518.705 212.977,502.003 223.8,491.18C226.613,488.367 230.428,486.787 234.406,486.787C238.385,486.787 242.2,488.367 245.013,491.18C279.002,525.169 383.005,629.172 383.005,629.172C383.005,629.172 697.377,314.8 759.546,252.631C765.404,246.773 774.901,246.773 780.759,252.631C791.619,263.491 808.401,280.274 819.261,291.133C825.119,296.991 825.119,306.489 819.261,312.346C758.442,373.166 454.585,677.022 393.766,737.842C387.908,743.7 378.41,743.7 372.553,737.842C336.833,702.123 221.171,586.46 185.452,550.741Z" style="fill:rgb(98,220,165);"/>
            </g>
            <g transform="matrix(0.707107,0.707107,-0.707107,0.707107,700.844,-505.567)">
                <path d="M323.444,688.733C323.444,688.733 426.107,586.07 446.619,565.558C449.432,562.745 453.247,561.165 457.226,561.165C461.204,561.165 465.019,562.745 467.832,565.558C478.692,576.418 495.475,593.201 506.334,604.06C509.147,606.873 510.727,610.689 510.727,614.667C510.727,618.645 509.147,622.46 506.334,625.273C474.695,656.913 383.159,748.448 383.159,748.448L323.444,688.733Z" style="fill:rgb(247,248,121);"/>
            </g>
        </g>
    </g>
    <defs>
        <linearGradient id="_Linear1" x1="0" y1="0" x2="1" y2="0" gradientUnits="userSpaceOnUse" gradientTransform="matrix(5.41716e-14,884.69,-884.69,5.41716e-14,533.789,126.07)"><stop offset="0" style="stop-color:rgb(64,63,77);stop-opacity:1"/><stop offset="1" style="stop-color:rgb(46,45,51);stop-opacity:1"/></linearGradient>
    </defs>
</svg>
