<?xml version="1.0" encoding="utf-8"?>
<!-- Generator: Adobe Illustrator 21.0.0, SVG Export Plug-In . SVG Version: 6.00 Build 0)  -->
<svg version="1.1" id="Layer_1" xmlns="http://www.w3.org/2000/svg" xmlns:xlink="http://www.w3.org/1999/xlink" x="0px" y="0px"
	 viewBox="0 0 24 24" style="enable-background:new 0 0 24 24;" xml:space="preserve">
<style type="text/css">
	.st0{fill:#16A9FF;}
</style>
<title>Group</title>
<desc>Created with Sketch.</desc>
<g>
	<polygon class="st0" points="23.9,10.5 23.9,0.1 20.4,3.5 18.2,5.7 13.5,10.5 	"/>
</g>
<path class="st0" d="M19.8,14.4l-0.1,0.3c-1.1,3.2-4.2,5.4-7.7,5.4c-4.5,0-8.1-3.6-8.1-8.1c0-4.5,3.6-8.1,8.1-8.1
	c2.2,0,4.2,0.9,5.7,2.4l0.3,0.4l2.8-2.8l-0.4-0.3c-2.3-2.2-5.3-3.5-8.4-3.5C5.5,0.1,0.1,5.4,0.1,12s5.4,11.9,11.9,11.9
	c5.5,0,10.2-3.7,11.5-9l0.1-0.6H19.8z"/>
</svg>
