<?xml version="1.0" encoding="iso-8859-1"?>
<!-- Generator: Adobe Illustrator 18.0.0, SVG Export Plug-In . SVG Version: 6.00 Build 0)  -->
<!DOCTYPE svg PUBLIC "-//W3C//DTD SVG 1.1//EN" "http://www.w3.org/Graphics/SVG/1.1/DTD/svg11.dtd">
<svg version="1.1" id="Capa_1" xmlns="http://www.w3.org/2000/svg" xmlns:xlink="http://www.w3.org/1999/xlink" x="0px" y="0px"
	 viewBox="0 0 54 54" style="enable-background:new 0 0 54 54;" xml:space="preserve">
<g>
	<path style="fill:#1081E0;" d="M38,33.486v4.028C38,38.335,37.335,39,36.514,39H17.486C16.665,39,16,38.335,16,37.514v-4.028
		C16,32.665,15.335,32,14.514,32H0.232C0.104,32,0,32.104,0,32.232v16.143C0,49.824,1.176,51,2.626,51h48.749
		C52.824,51,54,49.824,54,48.374V32.232C54,32.104,53.896,32,53.768,32H39.486C38.665,32,38,32.665,38,33.486z"/>
	<path style="fill:#13649B;" d="M44,3H10L0,32v0.231C0,32.104,0.104,32,0.232,32h14.282C15.335,32,16,32.665,16,33.486v4.028
		C16,38.335,16.665,39,17.486,39h19.028C37.335,39,38,38.335,38,37.514v-4.028C38,32.665,38.665,32,39.486,32h14.282
		C53.896,32,54,32.104,54,32.231v-0.234L44,3z"/>
	<path style="fill:#F2ECBF;" d="M14.514,32C15.335,32,16,32.665,16,33.486v4.028C16,38.335,16.665,39,17.486,39h19.028
		C37.335,39,38,38.335,38,37.514v-4.028C38,32.665,38.665,32,39.486,32H46v-3v-5H8v5v3H14.514z"/>
	<rect x="11" y="16" style="fill:#D8D1AB;" width="32" height="8"/>
	<rect x="14" y="8" style="fill:#BAB395;" width="26" height="8"/>
</g>
<g>
</g>
<g>
</g>
<g>
</g>
<g>
</g>
<g>
</g>
<g>
</g>
<g>
</g>
<g>
</g>
<g>
</g>
<g>
</g>
<g>
</g>
<g>
</g>
<g>
</g>
<g>
</g>
<g>
</g>
</svg>
