<svg width="30" height="30" xmlns="http://www.w3.org/2000/svg">

 <g>
  <title>background</title>
  <rect fill="none" id="canvas_background" height="32" width="32" y="-1" x="-1"/>
 </g>
 <g>
  <title>Layer 1</title>
  <g stroke="null" id="svg_1">
   <path stroke="null" id="svg_2" fill="#40C0E7" d="m4.02344,14.08847l2.49398,0.15622c-0.25021,3.61432 2.12782,6.90463 5.77928,8.00011c1.92236,0.57474 3.99322,0.45324 5.822,-0.31052l-2.70147,-2.73871l7.51245,0.23723l-0.63468,6.72719l-2.39837,-2.42819c-1.58671,0.81004 -3.34226,1.24399 -5.11612,1.24399c-1.08628,0 -2.17867,-0.15429 -3.23444,-0.47059c-4.75606,-1.42529 -7.8481,-5.70886 -7.52262,-10.41674z"/>
   <path stroke="null" id="svg_3" fill="#40C0E7" d="m17.28059,7.25712c-1.92236,-0.57474 -3.99525,-0.45517 -5.82607,0.30859l2.70351,2.73678l-7.51245,-0.2353l0.63672,-6.72719l2.39227,2.42241c2.55908,-1.30957 5.57586,-1.59887 8.3587,-0.76761c4.75199,1.42143 7.84607,5.70307 7.52262,10.41481l-2.49398,-0.15429c0.24614,-3.61625 -2.12985,-6.90656 -5.78131,-7.99819z"/>
  </g>
 </g>
</svg>