<?xml version="1.0" ?><!DOCTYPE svg  PUBLIC '-//W3C//DTD SVG 1.1//EN'  'http://www.w3.org/Graphics/SVG/1.1/DTD/svg11.dtd'><svg enable-background="new 0 0 91 91" height="91px" id="Layer_1" version="1.1" viewBox="0 0 91 91" width="91px" xml:space="preserve" xmlns="http://www.w3.org/2000/svg" xmlns:xlink="http://www.w3.org/1999/xlink"><g><path d="M30.518,17.745c0,0,8.389,7.882,16.163,3.626s16.389-3.599,16.389-3.599S63.874,37.85,47.415,37.85   C26.988,37.85,30.518,17.745,30.518,17.745z" fill="#9ABFDA"/><path d="M29,72.157V83h34V72.459c0,0-3.859-6.468-16.857-6.475C34.624,65.978,29,72.157,29,72.157z" fill="#9ABFDA"/><circle cx="46.535" cy="61.467" fill="#9ABFDA" r="3.036"/><path d="M50.412,51.416c0,2.14-1.734,3.874-3.874,3.874s-3.873-1.734-3.873-3.874s-4.185-3.873,3.873-3.873   C54.508,47.543,50.412,49.276,50.412,51.416z" fill="#9ABFDA"/><g><g><path d="M68.968,90.576c-1.388,0-2.513-1.125-2.513-2.513V65.52c0-9.028-8.939-16.373-19.927-16.373h-0.641     c-10.989,0-19.93,7.345-19.93,16.373v22.544c0,1.388-1.125,2.513-2.513,2.513s-2.513-1.125-2.513-2.513V65.52     c0-11.799,11.195-21.398,24.955-21.398h0.641c13.759,0,24.952,9.6,24.952,21.398v22.544     C71.48,89.451,70.355,90.576,68.968,90.576z" fill="#454B53"/><path d="M46.528,47.313h-0.641c-13.76,0-24.955-9.6-24.955-21.399V3.365c0-1.388,1.125-2.513,2.513-2.513     s2.513,1.125,2.513,2.513v22.548c0,9.028,8.94,16.374,19.93,16.374h0.641c10.987,0,19.927-7.346,19.927-16.374V3.365     c0-1.388,1.125-2.513,2.513-2.513s2.513,1.125,2.513,2.513v22.548C71.48,37.713,60.287,47.313,46.528,47.313z" fill="#454B53"/><path d="M83.055,5.878H9.352c-1.388,0-2.513-1.125-2.513-2.513s1.125-2.513,2.513-2.513h73.703     c1.388,0,2.513,1.125,2.513,2.513S84.442,5.878,83.055,5.878z" fill="#454B53"/><path d="M83.055,90.576H9.352c-1.388,0-2.513-1.125-2.513-2.513s1.125-2.513,2.513-2.513h73.703     c1.388,0,2.513,1.125,2.513,2.513S84.442,90.576,83.055,90.576z" fill="#454B53"/></g></g></g></svg>