<?xml version="1.0" encoding="UTF-8" standalone="no"?>
<svg width="100%" height="100%" viewBox="0 0 32 25" version="1.1" xmlns="http://www.w3.org/2000/svg" xmlns:xlink="http://www.w3.org/1999/xlink" xml:space="preserve" xmlns:serif="http://www.serif.com/" style="fill-rule:evenodd;clip-rule:evenodd;stroke-linejoin:round;stroke-miterlimit:2;">
    <g id="Rectangle-3" transform="matrix(1.02946,0,0,1.0379,5.48217e-09,-0.00186355)">
        <path d="M9.873,18.43C9.873,18.43 24.222,4.081 27.563,0.739C27.746,0.556 27.994,0.454 28.253,0.454C28.512,0.454 28.76,0.556 28.943,0.739C29.387,1.183 29.963,1.759 30.406,2.202C30.781,2.577 30.781,3.183 30.406,3.559C27.221,6.743 13.774,20.19 10.566,23.399C10.383,23.582 10.135,23.684 9.876,23.684C9.617,23.684 9.369,23.582 9.186,23.399C8.348,22.561 2.444,16.657 0.679,14.892C0.303,14.516 0.303,13.91 0.679,13.534C1.12,13.093 1.694,12.519 2.138,12.075C2.321,11.892 2.569,11.79 2.828,11.79C3.087,11.79 3.335,11.892 3.518,12.075C5.291,13.848 9.873,18.43 9.873,18.43Z" style="fill:rgb(98,220,165);"/>
    </g>
</svg>
