<?xml version="1.0" encoding="UTF-8" standalone="no"?>
<!DOCTYPE svg PUBLIC "-//W3C//DTD SVG 1.1//EN" "http://www.w3.org/Graphics/SVG/1.1/DTD/svg11.dtd">
<svg width="100%" height="100%" viewBox="0 0 30 30" version="1.1" xmlns="http://www.w3.org/2000/svg" xmlns:xlink="http://www.w3.org/1999/xlink" xml:space="preserve" xmlns:serif="http://www.serif.com/" style="fill-rule:evenodd;clip-rule:evenodd;stroke-linejoin:round;stroke-miterlimit:2;">
    <g id="Symbols">
        <g id="plus">
            <path id="Rectangle-3" d="M30,14L30,16C30,16.552 29.552,17 29,17L1,17C0.448,17 0,16.552 0,16L0,14C0,13.448 0.448,13 1,13L29,13C29.552,13 30,13.448 30,14Z" style="fill:white;"/>
            <path id="Rectangle-31" serif:id="Rectangle-3" d="M17,1L17,29C17,29.552 16.552,30 16,30L14,30C13.448,30 13,29.552 13,29L13,1C13,0.448 13.448,0 14,0L16,0C16.552,0 17,0.448 17,1Z" style="fill:white;"/>
        </g>
    </g>
</svg>
