<?xml version="1.0" encoding="UTF-8" standalone="no"?>
<svg width="100%" height="100%" viewBox="0 0 24 24" version="1.1" xmlns="http://www.w3.org/2000/svg" xmlns:xlink="http://www.w3.org/1999/xlink" xml:space="preserve" xmlns:serif="http://www.serif.com/" style="fill-rule:evenodd;clip-rule:evenodd;stroke-linejoin:round;stroke-miterlimit:2;">
    <g id="Rectangle-4" transform="matrix(1,0,0,1,0,0.0242304)">
        <path d="M3,0C3.552,0 4,0.448 4,1C4,4.904 4,19.096 4,23C4,23.552 3.552,24 3,24C2.389,24 1.611,24 1,24C0.448,24 0,23.552 -0,23C0,19.096 0,4.904 0,1C-0,0.448 0.448,0 1,0C1.611,0 2.389,0 3,0Z" style="fill:rgb(247,248,121);"/>
    </g>
    <g transform="matrix(1.83871e-16,3.00284,-1.64457,1.00701e-16,31.1433,-36.6148)">
        <path d="M20.186,12.856C20.186,12.856 20.186,12.856 20.186,12.856C20.186,12.856 20.186,12.856 20.187,12.856C20.188,12.856 20.194,12.856 20.194,12.856L20.194,13.464C20.194,13.8 20.045,14.072 19.861,14.072L12.534,14.072C12.351,14.072 12.201,13.8 12.201,13.464C12.201,13.464 12.201,13.042 12.201,12.901C12.201,12.872 12.207,12.844 12.217,12.822C12.482,12.257 15.941,4.883 15.941,4.883C16.004,4.748 16.097,4.671 16.194,4.671C16.291,4.671 16.384,4.748 16.447,4.883C16.447,4.883 20.183,12.849 20.186,12.856Z" style="fill:rgb(247,248,121);"/>
    </g>
</svg>
